<svg width="20" height="20" viewBox="0 0 20 20" fill="none" xmlns="http://www.w3.org/2000/svg">
<g id="Google_V1">
<path id="Shape" fill-rule="evenodd" clip-rule="evenodd" d="M19.5999 10.2286C19.6006 9.54287 19.54 8.85849 19.4186 8.18359H10V12.0523H15.3812C15.2692 12.6644 15.0343 13.2474 14.6906 13.7661C14.3468 14.2848 13.9015 14.7283 13.3813 15.0698V17.5773H16.6126C17.5979 16.6301 18.373 15.4862 18.8876 14.22C19.4023 12.9537 19.645 11.5934 19.5999 10.2273V10.2286Z" fill="#4285F4"/>
<path id="Shape_2" fill-rule="evenodd" clip-rule="evenodd" d="M9.99115 20.0023C12.4252 20.0682 14.7924 19.2016 16.6086 17.5798L13.3774 15.0711C12.6042 15.5673 11.728 15.8804 10.8154 15.9865C9.90288 16.0925 8.97792 15.9888 8.11157 15.6831C7.24522 15.3775 6.46029 14.878 5.81635 14.2227C5.1724 13.5675 4.68663 12.7739 4.39606 11.9023H1.05469V14.4936C1.88735 16.1501 3.16418 17.5424 4.74243 18.5152C6.32069 19.488 8.13841 20.0029 9.99237 20.0023H9.99115Z" fill="#34A853"/>
<path id="Shape_3" fill-rule="evenodd" clip-rule="evenodd" d="M4.4046 11.8978C3.98647 10.6657 3.98647 9.32996 4.4046 8.0978V5.50781H1.06354C0.364204 6.90146 0 8.43917 0 9.99844C0 11.5577 0.364204 13.0954 1.06354 14.4891L4.40582 11.8978H4.4046Z" fill="#FBBC05"/>
<path id="Shape_4" fill-rule="evenodd" clip-rule="evenodd" d="M9.99359 3.97813C11.4155 3.95554 12.7888 4.49451 13.8159 5.47812L16.6849 2.60938C14.8751 0.907424 12.4765 -0.0275448 9.99237 0.000618252C8.13841 9.72004e-05 6.32069 0.51498 4.74243 1.48776C3.16418 2.46054 1.88735 3.85291 1.05469 5.50937L4.39728 8.10061C4.78111 6.91415 5.52736 5.87796 6.53107 5.13797C7.53477 4.39797 8.74547 3.99143 9.99237 3.97561L9.99359 3.97813Z" fill="#EA4335"/>
</g>
</svg>
