<svg width="22" height="22" viewBox="0 0 22 22" fill="none" xmlns="http://www.w3.org/2000/svg">
<g id="Linkedin_V1">
<path id="Vector" d="M9 9H12.625V10.875C13.25 9.875 14.875 8.875 17 8.875C20.875 8.875 22 11 22 14.875V22H18.125V15.5C18.125 13.75 17.375 12.25 15.875 12.25C13.875 12.25 13 13.625 13 15.75V22H9V9Z" fill="#0073B0"/>
<path id="Vector_2" d="M6.375 9H2.5V22H6.375V9Z" fill="#0073B0"/>
<path id="Vector_3" d="M4.5 7C5.88071 7 7 5.88071 7 4.5C7 3.11929 5.88071 2 4.5 2C3.11929 2 2 3.11929 2 4.5C2 5.88071 3.11929 7 4.5 7Z" fill="#0073B0"/>
</g>
</svg>
